<?xml version="1.0" standalone="no"?>
<!DOCTYPE svg PUBLIC "-//W3C//DTD SVG 20010904//EN"
 "http://www.w3.org/TR/2001/REC-SVG-20010904/DTD/svg10.dtd">
<svg version="1.0" xmlns="http://www.w3.org/2000/svg"
 width="314.000000pt" height="160.000000pt" viewBox="0 0 314.000000 160.000000"
 preserveAspectRatio="xMidYMid meet">

<g transform="translate(0.000000,160.000000) scale(0.100000,-0.100000)"
fill="#000000" stroke="none">
<path d="M2215 1293 c-38 -9 -55 -34 -55 -79 0 -55 28 -84 82 -84 59 0 85 34
78 105 -3 40 -57 69 -105 58z"/>
<path d="M797 1240 l-52 -49 55 -56 c37 -37 62 -55 80 -55 41 -1 80 -43 80
-87 0 -26 100 -123 127 -123 36 0 55 -12 68 -43 27 -65 -34 -132 -96 -106 -35
14 -49 36 -49 76 0 21 -12 41 -45 73 l-45 44 0 -127 c0 -114 2 -131 21 -156
40 -54 2 -121 -67 -121 -66 0 -98 89 -49 134 24 22 25 28 25 149 0 121 -1 127
-25 151 -17 17 -25 36 -25 58 0 27 -10 44 -53 86 l-53 52 -157 -158 c-114
-116 -157 -165 -157 -182 0 -18 60 -84 232 -257 201 -202 236 -233 263 -233
26 0 61 31 263 233 177 177 232 238 232 257 0 19 -55 79 -233 257 -268 269
-257 263 -340 183z"/>
<path d="M2500 1160 c-13 -53 -51 -96 -91 -105 -26 -6 -29 -11 -29 -45 0 -38
1 -39 38 -42 l37 -3 5 -171 c4 -132 8 -175 20 -189 37 -45 134 -58 228 -30 29
9 52 18 52 22 0 3 -5 23 -11 44 -11 34 -14 37 -36 28 -37 -14 -80 -11 -97 7
-13 12 -16 41 -16 155 l0 139 70 0 70 0 0 45 0 45 -70 0 -70 0 0 69 0 69 -44
4 -45 3 -11 -45z"/>
<path d="M1707 1039 c-119 -34 -164 -188 -82 -278 l33 -36 -39 -42 c-44 -48
-51 -89 -19 -118 19 -18 19 -18 -5 -47 -47 -56 -26 -132 43 -160 48 -18 164
-27 235 -17 129 17 187 68 187 164 0 96 -38 120 -222 136 -67 5 -124 11 -125
13 -1 1 4 12 12 23 13 18 25 21 87 20 84 0 134 19 173 64 40 48 43 104 9 187
-4 8 6 12 35 12 l41 0 0 40 0 40 -67 0 c-38 0 -111 2 -163 5 -53 2 -112 0
-133 -6z m147 -90 c32 -15 50 -66 37 -102 -21 -56 -96 -75 -145 -36 -21 16
-26 29 -26 64 0 35 5 48 26 64 30 23 70 27 108 10z m64 -453 c22 -22 -1 -53
-51 -67 -49 -13 -151 -6 -172 11 -18 15 -19 51 -2 69 17 18 205 8 225 -13z"/>
<path d="M2126 1028 c-11 -44 -7 -56 24 -63 l30 -7 0 -158 0 -158 -30 -7 c-26
-6 -30 -11 -30 -41 l0 -34 135 0 135 0 0 34 c0 29 -4 34 -32 42 l-33 10 -3
202 -2 202 -94 0 c-89 0 -94 -1 -100 -22z"/>
</g>
</svg>
