<?xml version="1.0" standalone="no"?>
<!DOCTYPE svg PUBLIC "-//W3C//DTD SVG 20010904//EN"
 "http://www.w3.org/TR/2001/REC-SVG-20010904/DTD/svg10.dtd">
<svg version="1.0" xmlns="http://www.w3.org/2000/svg"
 width="1000.000000pt" height="457.000000pt" viewBox="0 0 1000.000000 457.000000"
 preserveAspectRatio="xMidYMid meet">

<g transform="translate(0.000000,457.000000) scale(0.100000,-0.100000)"
fill="#000000" stroke="none">
<path d="M2245 3861 c-51 -13 -65 -25 -225 -185 l-155 -156 215 -215 215 -215
60 5 c131 11 188 -44 189 -182 l1 -72 203 -206 202 -206 58 6 c86 8 151 -18
177 -70 27 -54 26 -146 -2 -200 -47 -91 -125 -140 -223 -139 -77 1 -123 21
-145 65 -22 41 -29 116 -17 160 l10 36 -199 199 -199 199 0 -426 0 -427 35
-26 c19 -15 35 -31 35 -36 0 -5 11 -20 24 -33 69 -69 54 -218 -29 -302 -49
-49 -101 -69 -175 -70 -94 0 -129 23 -154 100 -17 51 -18 66 -8 113 14 69 50
124 102 158 l40 27 0 433 0 434 -35 22 c-19 13 -35 28 -35 34 0 7 -11 19 -24
27 -47 31 -68 148 -40 220 5 14 -29 54 -142 168 -82 83 -180 178 -217 212
l-69 60 -479 -479 c-264 -263 -489 -496 -500 -516 -23 -45 -25 -124 -4 -176
22 -52 1493 -1526 1550 -1553 51 -24 119 -24 170 0 57 27 1458 1432 1480 1483
18 44 19 88 4 143 -9 34 -115 144 -757 788 -411 412 -765 759 -787 772 -45 27
-106 38 -150 26z"/>
<path d="M7640 3470 l0 -61 -22 15 c-30 21 -71 20 -97 -1 -41 -34 -44 -131 -6
-173 21 -23 83 -27 104 -7 11 10 14 10 18 0 3 -7 11 -13 19 -13 12 0 14 24 12
147 -2 106 -6 147 -15 151 -10 3 -13 -13 -13 -58z m-12 -91 c17 -31 8 -100
-14 -116 -24 -18 -54 -16 -76 4 -21 19 -25 100 -5 125 26 34 73 27 95 -13z"/>
<path d="M4430 3495 c0 -11 12 -15 45 -15 l45 0 0 -125 c0 -104 2 -125 15
-125 13 0 15 21 15 125 l0 125 45 0 c33 0 45 4 45 15 0 12 -18 15 -105 15 -87
0 -105 -3 -105 -15z"/>
<path d="M5271 3481 c-41 -34 -40 -64 2 -31 l27 21 0 -120 c0 -101 2 -121 15
-121 13 0 15 22 15 140 0 155 -2 159 -59 111z"/>
<path d="M5473 3498 c-13 -6 -23 -17 -23 -25 0 -15 12 -17 26 -4 35 32 104 11
104 -33 0 -27 -41 -85 -99 -141 -61 -58 -56 -65 49 -65 73 0 90 3 90 15 0 12
-15 15 -72 15 l-72 0 54 54 c86 87 99 128 55 171 -26 27 -72 32 -112 13z"/>
<path d="M5790 3371 c0 -176 18 -191 22 -18 l3 122 46 -120 c26 -67 52 -121
60 -123 10 -2 28 34 59 115 l45 118 3 -117 c2 -96 5 -118 17 -118 13 0 15 24
15 140 0 139 0 140 -23 140 -20 0 -28 -15 -66 -115 -24 -64 -46 -113 -49 -110
-3 3 -24 54 -47 113 -33 87 -45 108 -63 110 -22 3 -22 2 -22 -137z"/>
<path d="M6800 3423 c0 -152 24 -193 110 -193 86 0 110 41 110 193 0 68 -3 87
-14 87 -11 0 -15 -25 -18 -111 -3 -102 -5 -113 -27 -130 -13 -10 -36 -19 -51
-19 -15 0 -38 9 -51 19 -22 17 -24 28 -27 130 -3 86 -7 111 -18 111 -11 0 -14
-19 -14 -87z"/>
<path d="M6572 3468 c-6 -14 -19 -31 -29 -37 -17 -9 -17 -10 0 -16 14 -6 17
-20 17 -75 0 -88 20 -115 83 -111 26 2 21 21 -6 21 -37 0 -47 19 -47 92 l0 68
30 0 c20 0 30 5 30 15 0 10 -10 15 -29 15 -25 0 -30 5 -33 28 l-4 27 -12 -27z"/>
<path d="M4669 3411 c-33 -34 -39 -92 -14 -140 17 -33 33 -41 85 -41 29 0 43
6 59 25 83 106 -36 249 -130 156z m112 -17 c20 -24 17 -99 -5 -123 -43 -48
-106 -11 -106 62 0 72 70 110 111 61z"/>
<path d="M4890 3284 c0 -120 3 -155 13 -151 8 2 12 24 12 60 -1 58 3 65 22 46
14 -14 64 -14 91 0 12 6 27 29 33 50 31 103 -48 186 -126 135 -23 -15 -25 -15
-25 0 0 9 -4 16 -10 16 -6 0 -10 -59 -10 -156z m120 118 c32 -26 38 -90 10
-124 -43 -55 -100 -25 -100 52 0 47 13 73 40 83 24 9 27 8 50 -11z"/>
<path d="M6175 3428 c-40 -22 -58 -80 -44 -134 12 -42 43 -64 92 -64 76 0 110
73 76 161 -17 43 -80 62 -124 37z m97 -41 c13 -21 9 -92 -8 -115 -18 -26 -60
-29 -86 -5 -12 11 -18 30 -18 63 0 68 29 97 80 78 13 -5 28 -15 32 -21z"/>
<path d="M6380 3422 c-36 -29 -21 -68 34 -93 57 -25 73 -44 55 -65 -10 -13
-24 -15 -62 -11 -35 5 -47 3 -44 -6 10 -32 118 -22 137 14 19 34 2 59 -56 85
-32 14 -54 30 -54 39 0 20 37 34 78 28 18 -3 32 -1 32 5 0 27 -88 30 -120 4z"/>
<path d="M7096 3427 c-12 -9 -17 -23 -14 -42 2 -24 13 -35 56 -58 35 -19 52
-35 52 -47 0 -23 -37 -35 -80 -26 -22 4 -30 2 -30 -9 0 -24 102 -20 124 4 30
33 17 62 -43 96 -30 16 -56 36 -59 42 -5 16 39 33 67 26 11 -3 29 -2 38 2 17
7 16 8 -2 15 -31 13 -89 11 -109 -3z"/>
<path d="M7302 3422 c-48 -37 -46 -146 4 -178 24 -16 94 -21 114 -9 24 15 7
24 -34 19 -36 -5 -47 -3 -65 15 -11 11 -21 30 -21 41 0 18 7 20 70 20 64 0 70
2 70 21 0 72 -82 114 -138 71z m99 -39 c5 -13 9 -26 9 -29 0 -2 -25 -4 -56 -4
-52 0 -55 2 -52 22 4 26 41 48 70 40 11 -2 24 -16 29 -29z"/>
<path d="M5340 2998 c-66 -35 -77 -153 -19 -203 25 -20 41 -25 85 -25 45 0 59
5 86 29 30 27 33 34 33 90 0 53 -4 64 -27 88 -21 20 -39 27 -80 30 -31 2 -63
-1 -78 -9z"/>
<path d="M5790 2862 c0 -10 -7 -42 -15 -70 -20 -68 -71 -120 -125 -128 l-40
-7 0 -63 0 -64 49 0 49 0 4 -227 c5 -241 10 -268 55 -315 36 -37 84 -51 174
-52 78 0 219 36 219 56 0 6 -7 35 -16 65 -13 44 -19 53 -32 47 -31 -13 -129
-16 -150 -5 -33 18 -42 73 -42 259 l0 172 105 0 105 0 0 70 0 70 -105 0 -105
0 0 105 0 105 -65 0 c-56 0 -65 -2 -65 -18z"/>
<path d="M4633 2636 c-124 -41 -192 -140 -180 -266 6 -68 35 -129 79 -163 l32
-26 -52 -55 c-29 -30 -57 -67 -62 -82 -15 -38 -3 -80 27 -104 l26 -20 -25 -28
c-37 -39 -48 -65 -48 -113 0 -121 129 -178 379 -166 132 5 209 29 268 80 72
63 94 176 52 258 -37 73 -106 92 -402 114 l-88 7 19 31 18 32 104 0 c88 1 114
5 157 24 55 25 117 84 134 129 17 46 13 136 -10 180 -11 22 -17 42 -14 46 4 3
30 6 60 6 l53 0 0 60 0 60 -93 0 c-52 0 -161 2 -243 5 -111 4 -160 2 -191 -9z
m189 -126 c53 -15 78 -51 78 -112 0 -44 -4 -54 -35 -85 -35 -35 -37 -35 -102
-31 -57 4 -69 8 -89 32 -32 37 -34 121 -3 160 31 39 88 53 151 36z m79 -651
c42 -10 53 -28 40 -63 -14 -36 -64 -51 -176 -51 -153 0 -199 30 -160 105 l17
33 121 -7 c67 -4 138 -11 158 -17z"/>
<path d="M5236 2619 c-12 -63 -8 -73 37 -94 l42 -20 3 -222 2 -223 -22 -4
c-13 -3 -32 -7 -43 -8 -17 -3 -20 -12 -23 -61 l-3 -57 196 0 196 0 -3 58 -3
57 -40 5 -40 5 -3 298 -2 297 -144 0 -143 0 -7 -31z"/>
<path d="M6260 1380 l0 -61 -22 15 c-49 35 -110 10 -127 -50 -21 -77 15 -144
79 -144 20 0 42 6 49 13 11 10 14 10 18 0 3 -7 11 -13 19 -13 12 0 14 24 12
147 -2 106 -6 147 -15 151 -10 3 -13 -13 -13 -58z m-24 -72 c30 -23 23 -120
-9 -140 -21 -13 -53 -9 -70 10 -28 31 -26 103 4 133 20 20 48 19 75 -3z"/>
<path d="M6682 1424 c-12 -8 -22 -26 -22 -39 0 -14 -9 -30 -20 -37 -24 -15
-26 -28 -5 -28 12 0 15 -17 15 -90 0 -73 3 -90 15 -90 12 0 15 17 15 89 l0 90
27 3 c39 4 42 28 4 28 -35 0 -35 -1 -21 34 7 18 17 26 34 26 30 0 42 15 20 24
-24 9 -38 7 -62 -10z"/>
<path d="M8200 1291 c0 -129 2 -151 15 -151 13 0 15 21 13 147 -2 106 -6 147
-15 151 -10 3 -13 -31 -13 -147z"/>
<path d="M4505 1410 c-64 -26 -94 -125 -62 -202 22 -53 53 -70 123 -66 77 4
86 27 10 25 -65 -1 -90 16 -108 75 -8 29 -8 48 1 78 16 54 48 74 111 68 34 -3
51 -1 54 8 8 22 -85 33 -129 14z"/>
<path d="M7280 1280 l0 -140 61 0 c110 0 161 45 161 140 0 94 -54 140 -167
140 l-55 0 0 -140z m161 81 c25 -25 29 -37 29 -81 0 -44 -4 -56 -29 -81 -25
-24 -37 -29 -80 -29 l-51 0 0 110 0 110 51 0 c43 0 55 -5 80 -29z"/>
<path d="M4707 1324 c-29 -28 -36 -61 -25 -114 9 -45 40 -70 88 -70 48 0 79
25 88 70 17 81 -20 140 -88 140 -27 0 -45 -7 -63 -26z m111 -22 c17 -22 15
-93 -4 -120 -10 -14 -26 -22 -44 -22 -37 0 -60 32 -60 85 0 59 29 90 75 78 11
-3 26 -12 33 -21z"/>
<path d="M4920 1245 c0 -87 3 -105 15 -105 11 0 15 12 15 49 0 74 10 111 36
128 22 14 26 14 49 -1 23 -15 25 -22 25 -96 0 -64 3 -80 15 -80 12 0 15 14 15
69 0 38 3 77 6 86 9 24 51 37 75 25 16 -9 19 -22 19 -95 0 -69 3 -85 15 -85
22 0 21 156 -1 188 -18 26 -68 30 -100 8 -17 -12 -22 -12 -39 0 -25 18 -65 18
-93 -2 -20 -14 -22 -14 -22 0 0 9 -7 16 -15 16 -12 0 -15 -18 -15 -105z"/>
<path d="M5290 1245 c0 -87 3 -105 15 -105 12 0 15 14 15 69 0 38 3 77 6 86 9
24 51 37 75 25 16 -9 19 -22 19 -95 0 -66 3 -85 14 -85 10 0 15 20 18 76 3 65
7 79 27 95 29 24 36 24 61 -1 16 -16 20 -33 20 -95 0 -60 3 -75 15 -75 12 0
15 14 15 69 0 71 -12 120 -33 133 -21 13 -70 9 -89 -9 -17 -15 -19 -15 -36 0
-23 21 -61 22 -89 2 -19 -13 -22 -13 -27 0 -3 8 -10 15 -16 15 -6 0 -10 -40
-10 -105z"/>
<path d="M5683 1343 c-7 -2 -13 -11 -13 -18 0 -10 7 -12 31 -5 35 10 63 0 73
-26 10 -25 -2 -34 -43 -34 -71 0 -116 -63 -75 -104 20 -21 83 -20 106 1 17 15
18 15 18 0 0 -10 7 -17 15 -17 12 0 15 14 15 69 0 71 -12 120 -33 133 -13 8
-75 9 -94 1z m97 -107 c0 -27 -27 -67 -48 -73 -47 -11 -78 29 -47 61 14 13 95
24 95 12z"/>
<path d="M5870 1245 c0 -82 3 -105 14 -105 10 0 15 21 18 76 5 78 15 96 55
108 15 5 28 1 42 -13 18 -18 21 -34 21 -96 0 -60 3 -75 15 -75 12 0 15 14 15
69 0 71 -12 120 -33 133 -20 13 -71 9 -95 -8 -20 -14 -22 -14 -22 0 0 9 -7 16
-15 16 -12 0 -15 -18 -15 -105z"/>
<path d="M6372 1343 c-7 -2 -17 -13 -22 -24 -16 -29 3 -55 60 -84 28 -14 50
-31 50 -39 0 -27 -29 -39 -76 -32 -34 4 -45 3 -42 -7 7 -19 96 -21 124 -2 42
27 29 64 -35 100 -30 16 -56 36 -59 42 -5 18 36 31 76 26 33 -5 45 10 16 21
-18 7 -73 7 -92 -1z"/>
<path d="M6814 1338 c-43 -20 -58 -102 -29 -157 17 -33 33 -41 85 -41 43 0 74
29 85 80 8 38 -11 96 -38 115 -24 17 -72 19 -103 3z m95 -33 c22 -21 20 -99
-3 -124 -43 -48 -106 -11 -106 62 0 47 6 59 35 75 22 12 53 7 74 -13z"/>
<path d="M7020 1245 c0 -87 3 -105 15 -105 12 0 15 15 15 73 0 80 15 107 58
107 13 0 22 6 22 15 0 22 -40 18 -67 -7 l-23 -21 0 21 c0 12 -4 22 -10 22 -6
0 -10 -42 -10 -105z"/>
<path d="M7592 1332 c-48 -37 -46 -146 3 -178 28 -18 116 -16 123 3 3 10 -8
11 -41 7 -37 -5 -48 -3 -66 15 -11 11 -21 30 -21 41 0 18 7 20 70 20 64 0 70
2 70 21 0 72 -82 114 -138 71z m80 -14 c9 -7 18 -22 20 -33 3 -18 -3 -20 -49
-23 -47 -3 -53 -1 -53 17 0 20 34 51 55 51 6 0 18 -6 27 -12z"/>
<path d="M7750 1341 c0 -5 16 -52 37 -105 48 -129 61 -128 113 9 21 55 36 102
34 104 -13 15 -37 -21 -60 -93 -16 -47 -31 -83 -35 -78 -3 4 -19 44 -34 90
-17 47 -34 82 -42 82 -7 0 -13 -4 -13 -9z"/>
<path d="M8003 1335 c-50 -35 -48 -148 2 -181 28 -18 116 -16 123 4 3 9 -6 11
-37 6 -51 -8 -91 14 -91 51 0 24 2 25 70 25 54 0 70 3 70 14 0 25 -20 69 -38
82 -23 18 -73 17 -99 -1z m79 -17 c9 -7 18 -22 20 -33 3 -18 -3 -20 -49 -23
-47 -3 -53 -1 -53 17 0 20 34 51 55 51 6 0 18 -6 27 -12z"/>
<path d="M8322 1332 c-49 -38 -49 -142 1 -177 34 -24 94 -19 122 10 28 27 34
94 14 138 -21 46 -95 62 -137 29z m81 -13 c31 -17 37 -28 37 -76 0 -95 -101
-115 -123 -25 -8 35 11 92 36 102 29 11 25 12 50 -1z"/>
<path d="M8532 1198 c2 -110 6 -152 16 -156 9 -3 12 13 12 57 0 56 10 76 25
51 11 -18 81 -11 99 9 39 43 37 140 -4 173 -27 22 -68 23 -98 2 -20 -14 -22
-14 -22 0 0 9 -7 16 -15 16 -13 0 -15 -21 -13 -152z m136 104 c6 -9 12 -34 12
-57 0 -107 -105 -119 -117 -13 -5 41 -2 50 21 73 28 28 60 27 84 -3z"/>
<path d="M8803 1335 c-12 -8 -27 -31 -33 -51 -16 -47 1 -107 35 -130 28 -18
116 -16 123 3 3 10 -8 11 -40 7 -48 -7 -81 12 -93 54 -6 21 -4 22 70 22 l77 0
-7 33 c-15 68 -80 99 -132 62z m89 -29 c4 -6 8 -19 8 -28 0 -15 -9 -18 -50
-18 -43 0 -50 3 -50 19 0 41 70 61 92 27z"/>
<path d="M8990 1245 c0 -87 3 -105 15 -105 11 0 15 13 15 54 0 88 20 126 68
126 13 0 22 6 22 15 0 22 -40 18 -67 -7 l-23 -21 0 21 c0 13 -6 22 -15 22 -12
0 -15 -18 -15 -105z"/>
<path d="M9160 1332 c-38 -31 -21 -65 45 -96 30 -14 55 -31 55 -39 0 -28 -28
-40 -76 -33 -34 4 -45 3 -42 -7 5 -14 69 -21 104 -13 29 8 47 40 39 67 -4 11
-31 32 -61 47 -30 14 -54 32 -54 39 0 19 39 31 78 26 18 -3 32 -1 32 5 0 27
-88 30 -120 4z"/>
</g>
</svg>
