<?xml version="1.0" standalone="no"?>
<!DOCTYPE svg PUBLIC "-//W3C//DTD SVG 20010904//EN"
 "http://www.w3.org/TR/2001/REC-SVG-20010904/DTD/svg10.dtd">
<svg version="1.0" xmlns="http://www.w3.org/2000/svg"
 width="1200.000000pt" height="601.000000pt" viewBox="0 0 1200.000000 601.000000"
 preserveAspectRatio="xMidYMid meet">

<g transform="translate(0.000000,601.000000) scale(0.100000,-0.100000)"
fill="#000000" stroke="none">
<path d="M0 3005 l0 -3005 6000 0 6000 0 0 3005 0 3005 -6000 0 -6000 0 0
-3005z m7930 2170 l0 -55 -100 0 -100 0 0 -77 c0 -73 1 -75 18 -60 47 43 137
24 168 -35 11 -21 19 -64 22 -120 8 -166 -13 -235 -88 -286 -29 -20 -45 -23
-90 -20 -88 6 -140 56 -143 140 -2 32 -1 33 44 36 44 3 47 1 57 -27 14 -41 45
-56 80 -39 27 13 27 14 30 131 3 133 -4 157 -48 157 -31 0 -50 -22 -50 -59 0
-19 -6 -21 -55 -21 l-55 0 2 188 3 187 110 6 c61 3 129 6 153 7 l42 2 0 -55z
m-436 19 c10 -10 16 -33 16 -64 0 -65 -38 -103 -68 -67 -16 19 -9 126 8 137
21 13 26 12 44 -6z m-137 -24 c7 -37 26 -40 21 -3 -2 14 2 28 9 30 8 3 12 -20
15 -75 3 -71 1 -78 -14 -74 -10 2 -18 12 -18 21 -1 9 -7 27 -16 41 l-14 25 1
-30 c3 -49 0 -67 -11 -60 -5 3 -10 40 -10 81 0 60 3 74 15 74 9 0 18 -12 22
-30z m203 -100 c0 -5 -4 -10 -10 -10 -5 0 -10 5 -10 10 0 6 5 10 10 10 6 0 10
-4 10 -10z m-3259 -217 c2 -195 -1 -424 -6 -433 -5 -8 -11 -8 -19 -1 -10 8
-13 68 -13 241 0 216 2 230 19 230 14 0 18 -8 19 -37z m2848 -7 c10 -12 3 -15
-41 -21 -49 -6 -308 -8 -423 -3 -27 1 -158 -6 -290 -15 -540 -38 -699 -64
-767 -125 -22 -19 -23 -58 -3 -66 49 -18 409 -53 635 -61 96 -4 177 -8 180
-10 4 -2 51 -5 106 -6 54 -1 141 -10 193 -20 52 -10 128 -18 170 -17 74 1 277
-19 293 -28 4 -3 8 -30 8 -60 l0 -55 -27 15 c-49 24 -206 59 -284 61 -42 2
-125 15 -185 30 -104 26 -205 37 -464 50 -58 3 -163 10 -235 15 -71 6 -222 14
-335 20 -113 5 -258 14 -323 21 l-119 12 7 56 c3 31 13 61 21 68 36 27 468 80
929 112 439 32 501 34 582 22 45 -7 92 -9 105 -6 13 3 71 10 128 14 58 5 110
9 116 10 6 0 17 -5 23 -13z m22 -63 c5 -13 7 -23 6 -23 -38 -6 -186 -11 -297
-10 -80 1 -228 2 -330 2 -176 0 -180 1 -75 8 61 4 126 13 145 19 43 14 63 14
55 1 -8 -13 8 -13 21 0 8 8 48 5 163 -16 26 -5 37 -3 48 12 10 13 13 14 13 3
0 -9 3 -10 8 -3 4 5 23 11 42 11 36 1 133 12 137 17 1 1 14 2 29 1 18 0 29 -7
35 -22z m-2678 -69 c-1 -21 -4 -120 -8 -219 -4 -111 -12 -198 -21 -226 -17
-55 -68 -117 -131 -160 -44 -30 -47 -31 -77 -16 -55 26 -122 94 -143 144 -17
40 -22 81 -28 243 -4 107 -7 208 -8 225 -1 20 3 30 14 33 18 3 21 -12 35 -193
l6 -80 45 -30 c25 -16 60 -49 77 -72 l33 -42 14 26 c8 14 42 51 76 82 l62 56
6 95 c6 97 14 159 22 173 12 20 28 -3 26 -39z m2493 -83 l210 1 3 -45 2 -46
-36 4 c-24 3 -35 1 -35 -8 0 -9 -3 -8 -9 2 -5 8 -16 11 -30 6 -11 -3 -21 -2
-21 3 0 5 -30 10 -67 11 -37 1 -70 6 -74 12 -9 15 -51 1 -43 -14 3 -7 0 -5 -8
3 -13 15 -21 17 -114 22 -29 2 -50 6 -47 11 2 4 -5 7 -16 7 -12 0 -21 -5 -21
-12 0 -6 -9 -3 -20 7 -17 15 -24 16 -46 6 -30 -14 -46 -7 -37 17 5 13 4 15 -8
6 -15 -11 -24 -11 -234 -4 l-130 4 100 5 c55 4 183 5 285 3 102 -1 280 -2 396
-1z m-146 -71 c12 -8 10 -10 -10 -9 -14 1 -36 5 -50 9 -23 7 -22 8 10 9 19 0
42 -4 50 -9z m-1390 -56 c23 -6 24 -7 5 -14 -16 -7 -11 -9 20 -10 22 -1 53 -3
70 -5 21 -3 26 -2 15 5 -8 5 -31 10 -49 10 -22 0 -31 4 -25 9 9 10 109 1 167
-14 16 -4 27 -3 27 3 0 13 27 23 45 16 12 -5 13 -10 4 -20 -9 -11 3 -13 68
-12 130 1 143 -1 143 -17 0 -8 -7 -15 -15 -15 -8 0 -15 -4 -15 -8 0 -5 14 -6
31 -4 19 3 26 7 19 12 -9 5 -9 9 -1 14 6 4 14 1 17 -7 4 -11 13 -13 33 -7 42
12 81 2 74 -19 -6 -14 -5 -14 13 1 20 18 91 27 111 15 7 -4 14 -3 18 3 3 5 14
10 23 10 13 0 14 -2 4 -9 -9 -5 3 -10 35 -14 26 -3 77 -10 112 -17 35 -6 70
-9 78 -6 7 3 13 2 13 -2 0 -4 19 -9 43 -10 83 -3 143 -10 217 -25 49 -10 117
-14 195 -13 132 3 169 -8 163 -48 -6 -42 -133 -68 -343 -70 -88 -1 -194 -7
-235 -13 -41 -7 -120 -17 -175 -22 -216 -23 -363 -42 -425 -55 -117 -26 -192
-35 -355 -42 -88 -4 -169 -6 -180 -5 -11 2 -50 3 -87 4 -50 1 -68 5 -68 15 0
9 6 12 16 8 8 -3 36 -1 62 5 26 6 65 13 87 15 22 2 56 6 75 10 59 12 63 12
120 18 30 3 82 11 115 16 33 5 87 12 120 16 33 3 87 10 120 16 33 5 87 11 120
13 33 1 74 8 90 15 17 6 58 13 92 15 35 2 67 6 73 10 17 11 11 24 -15 31 -14
3 -22 10 -19 15 3 5 11 6 17 3 8 -5 9 -4 2 3 -13 14 -101 32 -126 26 -10 -3
-19 -10 -19 -15 0 -5 5 -6 10 -3 6 3 10 1 10 -5 0 -8 -7 -9 -17 -5 -18 8 -33
9 -90 6 -26 -1 -31 -4 -27 -18 5 -15 4 -15 -4 -4 -9 12 -20 11 -74 -12 -89
-37 -156 -52 -384 -87 -109 -17 -232 -38 -273 -46 -40 -8 -75 -13 -78 -10 -3
3 -7 16 -8 29 -3 23 3 26 94 47 188 43 216 77 138 163 l-35 37 26 0 c14 0 22
3 19 7 -10 10 -73 16 -159 17 l-78 0 0 27 c0 15 6 29 13 32 16 5 165 -2 197
-9z m1187 -100 c-3 -3 -12 -4 -19 -1 -8 3 -5 6 6 6 11 1 17 -2 13 -5z m-394
-71 c-7 -2 -21 -2 -30 0 -10 3 -4 5 12 5 17 0 24 -2 18 -5z m-977 -28 c6 -15
-11 -45 -26 -45 -9 0 -19 47 -12 55 11 10 33 5 38 -10z m994 5 c0 -5 -7 -7
-15 -4 -8 4 -15 8 -15 10 0 2 7 4 15 4 8 0 15 -4 15 -10z m960 -85 c0 -28 -4
-36 -22 -39 -92 -20 -167 -40 -188 -51 -14 -7 -43 -15 -65 -19 -92 -15 -96
-17 -82 -31 9 -8 34 -12 75 -10 34 2 60 0 57 -4 -2 -5 16 -7 41 -4 26 2 43 -1
40 -6 -4 -5 0 -12 6 -14 7 -3 -3 -4 -22 -1 -118 12 -169 12 -173 1 -2 -6 -22
-12 -44 -12 -23 0 -39 -4 -36 -9 4 -5 1 -6 -7 -1 -7 4 -33 7 -57 6 -28 -1 -42
3 -38 9 3 5 2 10 -4 10 -5 0 -12 -4 -16 -10 -3 -5 -12 -7 -21 -3 -11 4 -12 9
-3 19 8 9 8 14 1 14 -6 0 -13 -4 -16 -9 -4 -5 -25 -12 -47 -16 -30 -5 -38 -10
-30 -18 8 -8 14 -8 23 1 7 7 21 12 32 12 14 0 8 -6 -19 -20 -43 -22 -59 -25
-50 -10 3 6 1 10 -4 10 -6 0 -11 -7 -11 -15 0 -16 -31 -16 -92 0 -21 5 -28 4
-28 -8 0 -9 -10 -14 -25 -14 -20 0 -25 5 -25 24 0 21 -3 23 -14 14 -7 -6 -21
-8 -31 -5 -15 6 -16 3 -10 -17 l7 -24 -19 22 c-18 21 -19 21 -43 3 -22 -17
-56 -17 -45 0 7 11 -24 22 -38 13 -7 -4 -3 -9 9 -14 14 -5 10 -7 -13 -6 -18 1
-33 5 -33 10 0 13 -30 7 -36 -7 -7 -19 -85 -14 -119 8 -15 10 -29 15 -33 12
-3 -3 0 -6 7 -6 7 0 9 -5 5 -11 -4 -7 -24 -9 -54 -6 -59 7 -127 34 -114 46 15
14 170 49 309 71 72 11 162 26 200 35 39 8 99 17 135 21 36 3 104 14 152 25
68 15 107 18 185 13 101 -6 276 12 378 40 28 7 53 14 58 15 4 0 7 -15 7 -34z
m-1223 9 c-3 -3 -12 -4 -19 -1 -8 3 -5 6 6 6 11 1 17 -2 13 -5z m-270 -30 c-3
-3 -12 -4 -19 -1 -8 3 -5 6 6 6 11 1 17 -2 13 -5z m-1251 -96 c23 -140 -23
-255 -134 -333 l-55 -38 -33 18 c-56 30 -113 84 -136 129 -34 67 -38 246 -5
246 25 0 118 -72 144 -110 l26 -40 25 36 c33 49 127 130 154 133 3 1 10 -18
14 -41z m2552 -85 c-10 -2 -18 -9 -18 -14 0 -5 -4 -9 -10 -9 -5 0 -7 7 -4 15
4 8 16 14 28 14 16 -1 17 -2 4 -6z m-347 -12 c-8 -5 -20 -7 -28 -4 -21 8 -15
13 15 13 20 0 23 -3 13 -9z m284 -11 c-3 -5 -14 -10 -23 -9 -14 0 -13 2 3 9
27 11 27 11 20 0z m-674 -15 c0 -6 -10 -12 -22 -13 -19 -3 -20 -2 -8 12 15 16
31 17 30 1z m365 -142 c42 -16 -13 -69 -86 -83 -29 -6 -185 -24 -344 -40 -160
-17 -315 -34 -344 -39 -30 -4 -75 -7 -100 -5 -43 3 -44 2 -12 -5 l35 -8 -42
-2 c-23 0 -44 3 -47 8 -4 5 -28 3 -59 -5 -33 -9 -71 -12 -104 -8 -34 4 -53 3
-53 -4 0 -7 -10 -8 -27 -3 -16 4 -39 4 -53 1 -14 -4 -41 -5 -60 -4 -31 3 -32
3 -10 -5 24 -9 24 -9 3 -10 -13 -1 -23 -5 -23 -10 0 -16 34 -21 360 -46 170
-13 290 -26 484 -53 51 -7 71 -26 39 -36 -29 -9 -694 -28 -735 -21 -24 4 -35
11 -32 20 4 9 -9 15 -43 19 -26 4 -67 9 -91 13 -33 4 -42 9 -37 20 3 9 0 23
-7 31 -7 9 -8 13 -2 9 8 -4 10 9 6 44 l-5 50 29 -6 c19 -4 24 -3 16 3 -8 6 13
8 60 8 101 -1 209 7 215 16 2 5 8 6 13 3 13 -8 204 13 328 36 57 10 119 19
139 19 20 0 56 10 81 21 73 36 67 66 -13 71 -22 1 48 5 155 9 191 6 339 3 366
-8z m557 -60 c-2 -38 -6 -73 -8 -79 -2 -6 -31 -14 -64 -17 -70 -8 -135 -32
-126 -47 4 -6 -18 -10 -62 -11 -37 0 -79 -2 -93 -4 -23 -3 -82 6 -140 21 -14
3 -104 7 -200 8 -96 0 -180 4 -187 9 -6 4 -13 3 -15 -1 -4 -12 -108 -24 -108
-13 0 8 -62 5 -87 -4 -7 -2 -15 0 -18 5 -3 5 4 12 17 15 72 16 207 34 303 40
61 4 130 12 155 17 25 6 128 11 230 13 195 4 239 11 277 47 31 29 29 48 -4 49
-56 1 9 18 73 18 l62 1 -5 -67z m-1724 21 c7 -7 -45 -52 -74 -63 -11 -5 -50
-12 -87 -15 -59 -7 -68 -5 -68 9 0 9 -4 14 -9 10 -5 -3 -12 -1 -16 5 -3 5 1
10 11 10 12 0 15 6 12 25 -4 16 0 26 11 29 21 7 212 -2 220 -10z m-1015 -25
c12 -60 6 -138 -14 -192 -21 -56 -96 -142 -138 -158 -16 -6 -23 -16 -22 -32 1
-12 2 -107 1 -210 -1 -166 -3 -188 -17 -185 -14 3 -16 29 -16 206 l0 202 -32
22 c-103 71 -146 144 -146 253 0 96 7 117 34 109 34 -10 109 -71 135 -110 23
-33 26 -35 37 -17 37 55 73 93 109 117 52 33 61 33 69 -5z m1234 -124 c-3 -3
-18 -8 -34 -11 -22 -3 -25 -2 -14 6 15 10 58 14 48 5z m1433 -26 c-14 -5 -28
-6 -32 -2 -4 4 6 9 24 10 30 1 31 1 8 -8z m59 -19 c0 -13 -11 -13 -30 0 -12 8
-11 10 8 10 12 0 22 -4 22 -10z m-3424 -111 c80 -30 173 -123 203 -203 31 -83
36 -151 17 -225 -44 -170 -184 -282 -357 -283 -66 0 -144 16 -166 34 -13 11
-13 7 -14 -541 l0 -164 33 -34 32 -33 36 35 c39 38 52 42 69 21 9 -10 -8 -34
-83 -112 l-93 -98 -69 63 -69 63 -5 250 -5 250 -87 -97 -88 -98 0 -195 0 -196
-36 -37 -37 -38 -38 32 -39 32 0 456 c0 537 3 522 -87 425 -54 -57 -55 -58
-73 -40 -18 19 -18 20 33 75 29 30 78 84 110 118 l59 64 54 -54 54 -53 0 -208
c0 -114 3 -208 8 -207 4 0 44 42 89 92 l83 92 0 89 0 89 -37 33 -38 32 32 34
32 33 -14 49 c-62 204 56 414 264 473 60 17 153 10 227 -18z m2508 6 c-4 -8
-11 -15 -16 -15 -6 0 -5 6 2 15 7 8 14 15 16 15 2 0 1 -7 -2 -15z m1708 -102
l27 -29 -52 -58 -52 -58 -45 46 c-24 25 -48 46 -52 46 -4 0 -8 -52 -8 -116 l0
-117 71 6 72 6 -29 -32 c-16 -18 -48 -53 -72 -78 l-43 -46 3 -302 c5 -320 3
-331 -43 -374 -19 -18 -21 -18 -53 3 -19 11 -37 27 -40 36 -3 9 -6 153 -6 320
l0 304 -46 0 -46 0 46 54 c45 53 46 56 46 123 l1 68 121 132 121 132 26 -19
c14 -10 38 -31 53 -47z m1068 -129 l0 -47 66 7 66 7 -20 -28 c-11 -15 -41 -48
-66 -73 l-46 -44 0 -275 0 -275 33 32 c32 31 34 32 50 15 15 -17 11 -24 -71
-111 l-87 -92 -32 30 -33 30 0 310 0 310 -51 0 -50 0 112 125 c62 69 116 125
121 125 4 0 8 -21 8 -46z m-2860 -57 c0 -4 4 -6 8 -3 5 3 15 -6 23 -20 7 -14
21 -30 31 -35 15 -8 16 -24 13 -147 l-3 -137 52 59 52 58 30 -28 c16 -16 48
-46 72 -66 l43 -36 -5 -228 c-6 -234 -8 -245 -50 -275 -5 -4 -5 -12 -1 -19 5
-8 4 -11 -3 -6 -12 7 -63 -42 -90 -86 -9 -16 -21 -28 -27 -28 -5 0 -23 -16
-38 -35 -15 -19 -32 -35 -37 -35 -6 0 -36 25 -67 55 -32 30 -61 55 -65 55 -5
0 -8 181 -8 403 l0 403 -35 34 -35 34 53 56 c43 46 55 54 70 45 9 -5 17 -13
17 -18z m2531 -73 l48 -47 -47 -53 c-26 -30 -52 -54 -57 -54 -6 0 -29 18 -50
40 -21 22 -43 40 -47 40 -4 0 -8 -28 -8 -63 l0 -62 105 -95 104 -95 0 -90 0
-90 -103 -111 -103 -111 -54 48 -54 47 54 56 54 55 45 -40 c25 -21 48 -39 52
-39 4 0 8 34 9 75 l1 74 -72 70 c-40 38 -88 81 -105 96 -32 26 -33 30 -33 100
l0 73 101 111 c56 61 104 111 107 111 4 0 28 -21 53 -46z m-425 -51 c35 -31
64 -61 64 -65 0 -5 -52 -65 -115 -134 l-115 -125 -1 -102 c-2 -137 -2 -137 34
-175 l32 -33 52 58 c49 55 52 57 69 41 16 -16 13 -22 -62 -104 -43 -48 -90
-100 -104 -116 l-25 -28 -65 60 c-36 33 -67 60 -70 60 -3 0 -3 105 0 234 l5
235 114 125 c63 69 117 126 119 126 2 0 32 -26 68 -57z m-3443 -67 c4 -6 7
-66 6 -134 -1 -68 1 -125 4 -128 3 -3 26 19 51 49 l47 54 54 -51 54 -51 -54
-55 -55 -55 51 -46 51 -46 1 -227 2 -228 -35 -38 -35 -38 -36 31 -37 32 -2
195 -1 195 -30 23 -29 24 0 -216 0 -216 -32 -44 c-18 -25 -36 -45 -41 -45 -4
-1 -21 14 -37 32 l-29 32 -1 431 0 430 -27 26 c-16 14 -35 28 -43 30 -10 3 2
22 44 66 l59 62 46 -42 c25 -23 49 -47 54 -52z m2597 -1 l44 -45 -56 -56 -56
-57 -37 42 c-21 22 -41 41 -46 41 -5 0 -9 -143 -9 -323 l0 -323 -40 -39 -39
-38 -31 33 -31 33 1 290 1 291 -38 38 -37 38 54 55 54 54 49 -46 50 -46 46 50
c25 28 53 51 61 52 9 0 36 -19 60 -44z m-543 -22 c16 -16 46 -43 66 -61 l38
-33 -27 -32 c-15 -18 -52 -59 -83 -93 -80 -87 -96 -108 -92 -119 1 -5 -1 -7
-5 -3 -4 4 -13 3 -21 -3 -9 -9 -13 -44 -13 -133 l0 -122 33 -33 34 -32 51 57
c43 50 53 56 66 45 9 -8 16 -17 16 -21 0 -5 -46 -58 -101 -119 l-101 -111 -61
55 c-33 30 -64 55 -69 55 -4 0 -8 107 -8 238 l1 237 117 127 c64 70 120 127
124 128 3 0 19 -12 35 -27z m-1496 -53 c-1 -55 -2 -54 69 -40 59 11 77 1 51
-27 -11 -11 -17 -24 -13 -29 4 -4 2 -4 -4 -1 -11 6 -34 -16 -81 -76 -21 -27
-22 -36 -22 -295 l-1 -267 31 33 c21 24 35 31 49 27 31 -10 24 -27 -32 -86
-29 -30 -67 -71 -85 -91 l-32 -37 -28 22 c-15 12 -31 26 -35 32 -4 5 -8 151
-8 323 l0 313 -50 -7 c-32 -4 -50 -3 -50 4 0 5 30 39 66 73 36 35 89 92 117
126 28 35 52 61 55 58 3 -2 4 -27 3 -55z m479 -45 c19 -20 40 -33 48 -30 8 3
10 0 6 -6 -3 -6 5 -21 19 -33 l26 -22 -3 -228 c-4 -248 0 -234 -68 -295 -38
-35 -97 -115 -91 -124 3 -6 1 -7 -6 -3 -7 5 -25 -7 -45 -28 l-32 -36 -45 37
c-24 21 -47 42 -50 47 -4 5 -12 5 -19 1 -8 -5 -11 -4 -7 2 4 6 0 16 -8 23 -12
10 -15 50 -15 238 l0 225 42 46 c145 160 202 221 208 221 3 0 21 -16 40 -35z
m-1337 -131 c54 -50 54 -46 -12 -116 -19 -21 -40 -38 -45 -38 -6 0 -30 19 -53
42 l-43 42 0 -261 0 -261 32 -27 32 -27 52 54 c45 49 53 53 69 42 16 -12 16
-16 4 -31 -24 -31 -72 -84 -135 -151 l-61 -65 -66 63 -67 62 0 229 0 230 118
129 c64 72 119 130 122 130 3 0 27 -21 53 -46z m-521 -69 l63 -59 0 -258 1
-258 33 -34 c38 -39 39 -37 -33 -108 l-38 -39 -51 48 -50 47 -53 -58 -53 -57
-70 67 -71 67 0 221 0 221 122 133 c67 73 125 131 129 130 4 -2 36 -30 71 -63z
m4888 -594 l0 -48 51 -6 c29 -4 67 -16 85 -29 57 -39 64 -68 64 -260 l0 -172
31 -25 c58 -49 47 -151 -21 -186 -51 -26 -97 -20 -137 20 -33 33 -35 39 -30
82 4 38 12 54 42 81 l36 33 -3 164 c-3 188 -10 205 -80 205 l-38 0 0 -56 0
-56 -80 72 -79 72 72 79 c40 43 75 79 80 79 4 0 7 -22 7 -49z m-246 -5 c45
-19 66 -52 66 -104 0 -37 -6 -50 -35 -79 l-35 -35 0 -150 0 -151 35 -38 c43
-48 47 -98 12 -150 -60 -89 -205 -45 -209 63 -1 38 33 94 64 104 16 5 18 19
18 161 l0 156 -36 31 c-65 57 -51 157 29 191 41 18 50 18 91 1z m-3248 -359
c2 -23 -1 -24 -140 -36 -77 -7 -154 -14 -171 -16 -41 -4 -134 -12 -295 -25
-74 -6 -146 -13 -160 -15 -14 -3 -65 -7 -115 -10 -49 -3 -160 -13 -245 -21
-85 -8 -211 -19 -280 -25 -69 -5 -246 -21 -395 -34 -329 -30 -315 -30 -315 -6
0 16 9 21 53 26 51 5 551 51 672 61 33 2 80 7 105 9 25 3 126 12 225 21 99 9
194 17 210 19 17 2 68 6 115 9 47 3 103 8 125 11 109 13 255 25 460 40 50 4
92 9 94 11 2 2 16 4 30 4 20 0 26 -5 27 -23z m-908 -279 c-3 -21 -9 -24 -83
-29 -44 -4 -114 -10 -155 -13 -41 -4 -129 -11 -195 -17 -191 -16 -665 -58
-723 -64 -51 -5 -53 -4 -50 17 3 21 10 24 93 31 50 4 266 24 480 44 349 33
437 40 593 51 40 3 43 1 40 -20z m254 -163 c19 -26 5 -33 -79 -39 -49 -4 -211
-18 -361 -31 -329 -30 -312 -30 -312 -6 0 23 -5 23 390 57 162 14 296 26 297
27 6 7 59 1 65 -8z m688 -147 c0 -25 -4 -28 -32 -28 -18 -1 -80 -5 -138 -10
-58 -5 -143 -12 -190 -15 -47 -3 -103 -8 -125 -10 -22 -3 -73 -8 -113 -11 -73
-5 -74 -5 -70 18 3 21 10 24 73 29 39 4 147 14 240 22 94 9 202 19 240 23 39
3 72 8 73 9 2 2 13 3 23 2 14 -1 19 -9 19 -29z m-940 -81 c0 -23 -2 -23 -212
-41 -117 -10 -232 -20 -255 -23 -39 -5 -43 -4 -43 16 0 11 1 21 3 22 2 1 455
45 490 48 11 1 17 -6 17 -22z m907 -133 c-6 -6 -45 -11 -262 -29 -104 -8 -203
-17 -220 -19 -16 -2 -66 -7 -110 -11 -44 -3 -334 -28 -645 -56 -311 -27 -617
-54 -680 -59 -63 -6 -132 -12 -152 -15 -35 -5 -38 -3 -38 18 0 23 4 24 133 35
270 23 1393 123 1432 127 22 2 150 13 285 25 135 12 247 24 250 27 3 3 6 -5 8
-17 2 -12 2 -24 -1 -26z m-477 -224 c0 -11 -2 -20 -3 -20 -2 0 -206 -18 -452
-40 -246 -22 -454 -40 -462 -40 -7 0 -13 9 -13 19 0 24 -16 22 470 66 457 41
460 41 460 15z m-460 -239 c0 -16 -22 -19 -202 -35 -112 -9 -218 -19 -235 -22
-29 -4 -33 -2 -33 19 0 23 1 23 228 43 125 11 230 18 235 16 4 -2 7 -11 7 -21z"/>
<path d="M7460 5130 c0 -27 5 -50 10 -50 6 0 10 23 10 50 0 28 -4 50 -10 50
-5 0 -10 -22 -10 -50z"/>
<path d="M5305 4490 c-3 -5 3 -10 14 -10 12 0 21 5 21 10 0 6 -6 10 -14 10 -8
0 -18 -4 -21 -10z"/>
<path d="M5365 4490 c3 -5 10 -10 16 -10 5 0 9 5 9 10 0 6 -7 10 -16 10 -8 0
-12 -4 -9 -10z"/>
<path d="M5595 4470 c3 -5 8 -10 11 -10 2 0 4 5 4 10 0 6 -5 10 -11 10 -5 0
-7 -4 -4 -10z"/>
<path d="M5845 4430 c3 -5 8 -10 11 -10 2 0 4 5 4 10 0 6 -5 10 -11 10 -5 0
-7 -4 -4 -10z"/>
<path d="M6013 4423 c9 -2 25 -2 35 0 9 3 1 5 -18 5 -19 0 -27 -2 -17 -5z"/>
<path d="M5945 4410 c3 -5 11 -10 16 -10 6 0 7 5 4 10 -3 6 -11 10 -16 10 -6
0 -7 -4 -4 -10z"/>
<path d="M6155 4410 l-30 -8 35 -1 c19 0 42 4 50 9 12 8 11 10 -5 9 -11 -1
-33 -5 -50 -9z"/>
<path d="M6339 4351 c-5 -37 -2 -46 12 -49 9 -1 16 4 16 12 0 8 -3 15 -6 14
-18 -2 -24 3 -12 11 9 6 10 11 2 15 -6 4 -12 2 -12 -3z"/>
<path d="M6388 4333 c7 -3 16 -2 19 1 4 3 -2 6 -13 5 -11 0 -14 -3 -6 -6z"/>
<path d="M6425 4320 c3 -5 8 -10 11 -10 2 0 4 5 4 10 0 6 -5 10 -11 10 -5 0
-7 -4 -4 -10z"/>
<path d="M6450 4321 c0 -16 28 -20 40 -5 10 12 8 14 -14 14 -14 0 -26 -4 -26
-9z"/>
<path d="M6380 4280 c-9 -6 -10 -10 -3 -10 6 0 15 5 18 10 8 12 4 12 -15 0z"/>
<path d="M6428 4033 c6 -2 18 -2 25 0 6 3 1 5 -13 5 -14 0 -19 -2 -12 -5z"/>
<path d="M3557 3490 c-95 -24 -184 -97 -227 -185 -19 -38 -26 -71 -28 -133 -4
-89 11 -150 32 -133 8 7 29 -5 65 -38 46 -40 55 -53 60 -91 6 -42 10 -47 54
-68 60 -30 160 -33 232 -8 247 86 313 405 119 575 -81 72 -209 105 -307 81z
m41 -132 c18 -18 14 -47 -13 -94 l-25 -43 22 -3 c12 -2 23 -9 26 -15 2 -9 -10
-13 -42 -13 -26 0 -46 5 -46 11 0 6 14 30 30 54 30 44 38 79 20 90 -6 3 -13
-1 -16 -9 -6 -15 -34 -23 -34 -10 0 36 52 58 78 32z m142 -7 c14 -27 13 -134
-2 -149 -18 -18 -56 -14 -68 7 -5 11 -10 43 -10 71 0 64 13 90 45 90 14 0 29
-8 35 -19z m-160 -311 c0 -53 -4 -90 -10 -90 -6 0 -10 28 -10 65 0 51 -4 67
-16 72 -14 5 -13 9 7 24 13 10 25 19 27 19 1 0 2 -40 2 -90z m148 78 c15 -15
16 -55 2 -63 -8 -5 -8 -11 0 -20 6 -8 10 -29 8 -47 -3 -29 -7 -33 -35 -36 -27
-3 -35 1 -44 21 -7 16 -8 31 -1 43 5 11 7 34 5 52 -8 50 33 82 65 50z"/>
<path d="M3690 3280 c0 -47 3 -60 15 -60 12 0 15 13 15 60 0 47 -3 60 -15 60
-12 0 -15 -13 -15 -60z"/>
<path d="M3680 3080 c0 -15 5 -20 18 -18 9 2 17 10 17 18 0 8 -8 16 -17 18
-13 2 -18 -3 -18 -18z"/>
<path d="M3684 3015 c-4 -8 -3 -23 1 -32 6 -17 7 -17 20 0 14 19 10 47 -6 47
-5 0 -12 -7 -15 -15z"/>
<path d="M6279 2849 c-1 -2 -3 -114 -5 -249 l-3 -245 49 -43 49 -43 0 253 c1
139 -2 258 -7 264 -9 13 -82 68 -83 63z"/>
<path d="M8140 3014 c-1 -11 -2 -52 -3 -92 -1 -39 0 -72 3 -72 12 0 92 89 89
97 -2 5 -23 26 -46 47 -35 31 -43 35 -43 20z"/>
<path d="M4870 2645 l0 -99 45 49 c24 28 44 52 45 55 0 3 -20 26 -45 50 l-45
44 0 -99z"/>
<path d="M6781 2815 c-1 -47 2 -85 6 -85 4 1 25 23 47 51 l38 50 -38 34 c-22
19 -42 34 -45 35 -4 0 -7 -38 -8 -85z"/>
<path d="M5756 2795 c4 -8 10 -12 15 -9 11 6 2 24 -11 24 -5 0 -7 -7 -4 -15z"/>
<path d="M5770 2775 c-9 -11 -14 -78 -17 -238 l-3 -223 49 -45 c28 -26 52 -41
54 -35 2 6 5 118 6 250 l3 238 -33 34 c-37 39 -42 40 -59 19z"/>
<path d="M3862 2395 l1 -255 43 -40 c24 -22 48 -40 54 -40 6 0 10 85 10 245
l0 246 -46 49 c-26 28 -50 50 -55 50 -4 0 -8 -115 -7 -255z"/>
<path d="M9045 1506 c-13 -19 -14 -29 -6 -45 22 -40 82 -35 96 9 17 54 -58 85
-90 36z"/>
<path d="M8602 2038 c-7 -7 -12 -24 -12 -38 0 -53 57 -69 86 -25 24 36 6 75
-34 75 -15 0 -33 -5 -40 -12z"/>
<path d="M8612 1500 c-29 -27 -29 -64 1 -77 54 -25 102 43 56 78 -30 23 -31
23 -57 -1z"/>
</g>
</svg>
